PathFileType	4	(X/Y/Z)	Patient4_TMGait_0pt4_02_right_30.trc.trc
DataRate	CameraRate	NumFrames	NumMarkers	Units	OrigDataRate	OrigDataStartFrame	OrigNumFrames
76.086956521739	76.086956521739	4	33	mm	76.086956521739	53	       141
Frame#	Time	Sacral			L.Shoulder			Chest			R.Shoulder			Neck			R.ASIS			L.ASIS			R.Thigh.Superior			R.Thigh.Lateral			R.Thigh.Inferior			R.Patella			L.Thigh.Superior			L.Thigh.Lateral			L.Thigh.Inferior			L.Patella			L.Shank.Superior			L.Shank.Lateral			L.Shank.Inferior			R.Shank.Superior			R.Shank.Lateral			R.Shank.Inferior			R.Heel			R.Midfoot.Superior			R.Midfoot.Lateral			R.Toe			L.Heel			L.Midfoot.Lateral			L.Midfoot.Superior			L.Toe			L.Elbow			L.Wrist			R.Elbow			R.Wrist			
		X1	Y1	Z1	X2	Y2	Z2	X3	Y3	Z3	X4	Y4	Z4	X5	Y5	Z5	X6	Y6	Z6	X7	Y7	Z7	X8	Y8	Z8	X9	Y9	Z9	X10	Y10	Z10	X11	Y11	Z11	X12	Y12	Z12	X13	Y13	Z13	X14	Y14	Z14	X15	Y15	Z15	X16	Y16	Z16	X17	Y17	Z17	X18	Y18	Z18	X19	Y19	Z19	X20	Y20	Z20	X21	Y21	Z21	X22	Y22	Z22	X23	Y23	Z23	X24	Y24	Z24	X25	Y25	Z25	X26	Y26	Z26	X27	Y27	Z27	X28	Y28	Z28	X29	Y29	Z29	X30	Y30	Z30	X31	Y31	Z31	X32	Y32	Z32	X33	Y33	Z33	

53	40.253428571429	878.219286380988	1001.325721551878	511.512274633446	1025.524725829409	1434.530273177789	316.480271720648	1143.864733777695	1373.832435040554	470.281498131634	1070.990369009294	1445.044744812293	649.961511164961	1018.349729673011	1498.126895932034	472.298604004700	1116.099137143857	946.046405655190	613.674547504901	1083.524230656012	969.337578720732	341.312676392016	1146.954469278717	739.469041114345	580.900410654154	1061.012990402577	631.931693450553	642.903708716074	1132.891377534012	577.298624591249	561.141760080319	1127.305473879310	489.142047506369	565.775444239812	1176.320994302365	791.105444887721	358.496457838387	1132.264088047797	664.082057863410	277.281298792701	1244.714287126661	608.293117428566	325.760968011591	1262.910914516503	521.870071665014	315.889776940493	1204.044047451802	449.508877667987	310.327509463168	1066.249770022840	390.989925764173	269.546982788046	1075.549721026367	258.790925877095	318.385570181380	1094.729719587019	401.306535251846	571.921600128138	1018.640870089704	300.839667198327	631.627023036335	1054.890238179164	204.497791159224	567.017878191870	914.899752788039	43.649756520626	532.819334929194	1084.551561264770	96.048258026471	575.391566328738	995.316321115723	37.369454378523	611.616355586745	1204.014938174156	42.249965573283	608.984431022032	899.780341208834	175.687660034947	366.946984202584	954.015630908562	133.378006316608	283.020941671259	1059.344747461463	149.958253186730	297.069798503015	1142.401043777685	43.095585871853	263.684476664877	950.242730393161	1085.494924557223	218.224989735081	978.390880464656	828.515404543613	186.211540939494	1137.231285900665	1114.202268290442	790.065397417982	1383.278074853505	1079.726522757726	737.153085204637	
54	40.266571428571	877.478807667952	1002.610516118320	514.200700332143	1024.001036833146	1435.041911195057	317.855875650540	1144.151889513608	1373.894714366163	470.025412080277	1074.098243843309	1445.728683413338	650.563572645592	1019.105345628820	1498.649239102336	473.475669867098	1115.779684635146	945.903642260075	613.849392853991	1080.697672619366	970.293662731363	341.886688629887	1144.140876121067	738.842059856237	580.759641979735	1057.437215956910	632.109912947201	643.357884536301	1128.103076724004	576.825512247180	561.203413920835	1121.685083804032	489.064574500456	565.798142588124	1174.154499988877	793.493116577419	358.974669485699	1130.878781340019	666.115432972792	277.795311113882	1243.846896055621	611.277913732440	325.998635795357	1263.461980604010	526.046779043908	315.918894044698	1207.805766277458	452.626147934145	309.983700979264	1073.464713126648	386.836277009807	269.558781876711	1090.879081913187	255.027630292147	316.999954248994	1089.226980296771	401.407006759732	572.111671704284	1013.280254051416	300.908411143297	631.937898396484	1049.489347770580	204.603043246389	567.205236868143	909.589365764030	43.666436077584	532.947525202281	1079.242464837835	96.042146191067	575.498238618253	989.996478974319	37.347327615335	611.690186979407	1198.680566395976	42.258188652003	609.052525663980	921.327207994922	160.285890172482	366.113456765098	977.141462603958	122.926999756369	281.072712147345	1081.089673384461	146.233316448349	294.491414556373	1170.443202743021	46.110433794839	258.710490648774	942.737834330417	1086.955534774603	221.644804169101	965.962263061583	829.592369977915	189.501651326907	1146.539133443727	1117.137425430776	791.024831583906	1392.433825616190	1095.734170581180	733.477012354756	
55	40.279714285714	876.701552451568	1003.818174977289	516.770843434861	1022.567406870621	1435.471023062820	319.166188380983	1144.492566238480	1373.787655611543	469.662379553804	1077.287390583853	1446.217904124626	651.036616859399	1019.956461850790	1499.021046824547	474.622134267582	1115.424186246480	945.629143020250	613.785215043992	1077.790182167612	971.087056892547	342.254997798797	1141.260676082339	738.161720372673	580.398066104740	1053.934094419132	632.232642394429	643.742655611290	1123.293636291247	576.326986366826	561.130643737157	1116.091526324979	488.959238673413	565.771788007498	1171.496830707319	795.251892714936	359.380235517791	1128.847163623353	667.615819907415	278.240779395506	1241.982908116488	613.407622591162	326.565130631667	1262.909819547698	529.610804228769	316.198445593555	1210.749849138369	455.347409989389	309.743290941983	1080.630717989179	381.916646735501	269.440077598351	1106.672705378262	250.997141019666	315.483358628631	1083.752361316375	401.479365714010	572.264920498497	1007.960397955079	300.934756705840	632.219722661362	1044.094095379102	204.674352335180	567.360694862695	904.279259570713	43.663352263837	533.078311546452	1073.923691090133	96.026298795403	575.587379068586	984.671415594825	37.316383631723	611.762684672886	1193.342454306511	42.273815804264	609.108134036699	944.437684397439	144.201284147237	364.944563862882	1001.678527658661	112.238914281300	278.799145392635	1103.754153816914	142.572645191305	291.710711020771	1199.417747362166	50.013113419251	253.495372498965	935.831811533817	1088.391688942903	224.784266926752	954.581449454153	830.759012819340	192.470818148184	1155.654861009763	1119.916459592885	791.717525876917	1400.652651399909	1111.180949667654	729.615131297614	
56	40.292857142857	875.867888360759	1004.908903162961	519.205352548476	1021.244280845938	1435.788499981039	320.388691898056	1144.879589785929	1373.484912464049	469.196502400744	1080.516145729765	1446.479002248642	651.376460163329	1020.899868146470	1499.218767107203	475.727866225069	1115.034458357249	945.214017100247	613.497472125189	1074.828477444914	971.672385028637	342.419156286411	1138.358889160897	737.431655200365	579.833158906818	1050.574267310281	632.281233734021	644.066388259138	1118.542214085896	575.797442446442	560.927628735053	1110.619435006118	488.806520847490	565.704914820871	1168.401000497877	796.356963736292	359.738089749908	1126.260781080022	668.582011157088	278.609033756050	1239.211703427967	614.684163835080	327.494841702000	1261.373438292095	532.556794349328	316.759538743579	1212.925179880305	457.693351426899	309.651806929975	1087.798434197076	376.504374978012	269.148430539187	1122.689286043815	247.034581747519	313.923745822460	1078.380220725127	401.500346354978	572.380404581613	1002.737551099089	300.908689225815	632.473250509720	1038.738502768617	204.695346482346	567.479916076656	898.968986321813	43.640761592033	533.207536079878	1068.595794753177	95.998834992660	575.656873020944	979.344511829667	37.277947067406	611.835742144731	1188.004073255651	42.291696522858	609.151682641713	968.745113927188	128.182627940426	363.416028451952	1027.256581111710	101.919341846159	276.273912962365	1126.933826781867	139.366709188407	288.894252061938	1228.699379637163	54.987178424835	248.395964913121	929.532896951346	1089.739899845391	227.618983076599	944.271318023655	831.929323268200	195.094748582438	1164.570537104515	1122.477408210578	792.141202359276	1408.008100174784	1125.897727386014	725.607498367405	
